<?xml version="1.0" encoding="utf-8"?>
<!-- Generator: Adobe Illustrator 27.5.0, SVG Export Plug-In . SVG Version: 6.00 Build 0)  -->
<svg version="1.1" xmlns="http://www.w3.org/2000/svg" xmlns:xlink="http://www.w3.org/1999/xlink" x="0px" y="0px"
	 viewBox="0 0 500 500" style="enable-background:new 0 0 500 500;" xml:space="preserve">
<g id="BACKGROUND">
	<rect x="0" y="0" style="fill:#FFFFFF;" width="500" height="500"/>
</g>
<g id="OBJECTS">
	<g style="opacity:0.3;">
		<path style="fill:#F9E6A7;" d="M289.387,69.098c-77.935-10.924-147.371,29.605-187.082,69.523
			c-41.467,41.683-50.36,80.363-40.812,131.2c22.279,97.764,144.815,160.334,257.803,136.87s151.844-148.453,119-233.118
			C416.141,116.462,367.323,80.022,289.387,69.098z"/>
	</g>
	<g>
		<circle style="fill:#FFFFFF;" cx="238.773" cy="108.023" r="30.465"/>
		<g>
			<path style="fill:#812C3A;" d="M238.773,139.905c-17.58,0-31.883-14.302-31.883-31.882c0-17.58,14.302-31.883,31.883-31.883
				c17.58,0,31.882,14.302,31.882,31.883C270.655,125.603,256.352,139.905,238.773,139.905z M238.773,78.975
				c-16.017,0-29.048,13.031-29.048,29.048s13.031,29.048,29.048,29.048s29.048-13.031,29.048-29.048S254.79,78.975,238.773,78.975z
				"/>
		</g>
		<circle style="fill:#EF7D65;" cx="238.773" cy="83.168" r="1.841"/>
		<circle style="fill:#EF7D65;" cx="238.773" cy="132.017" r="1.841"/>
		<circle style="fill:#EF7D65;" cx="263.197" cy="107.593" r="1.841"/>
		<circle style="fill:#EF7D65;" cx="214.348" cy="107.593" r="1.841"/>
		<circle style="fill:#EF7D65;" cx="259.517" cy="94.7" r="1.841"/>
		<circle style="fill:#EF7D65;" cx="218.028" cy="120.486" r="1.841"/>
		<circle style="fill:#EF7D65;" cx="251.248" cy="86.595" r="1.841"/>
		<circle style="fill:#EF7D65;" cx="226.297" cy="128.591" r="1.841"/>
		<circle style="fill:#EF7D65;" cx="251.58" cy="128.39" r="1.841"/>
		<circle style="fill:#EF7D65;" cx="225.965" cy="86.796" r="1.841"/>
		<circle style="fill:#EF7D65;" cx="259.719" cy="120.154" r="1.841"/>
		<circle style="fill:#EF7D65;" cx="217.826" cy="95.031" r="1.841"/>
		<g>
			<path style="fill:#812C3A;" d="M238.773,110.385c-0.238,0-0.477-0.06-0.692-0.181c-0.448-0.25-0.725-0.723-0.725-1.236v-7.43
				c0-0.782,0.634-1.417,1.417-1.417s1.417,0.635,1.417,1.417v4.897l14.519-8.911c0.667-0.41,1.54-0.201,1.949,0.467
				c0.41,0.667,0.201,1.539-0.466,1.949l-16.677,10.236C239.287,110.315,239.03,110.385,238.773,110.385z"/>
		</g>
	</g>
	<g>
		<path style="fill:#FFFFFF;stroke:#812C3A;stroke-miterlimit:10;" d="M424.336,369.713h-49.389c-1.165,0-2.109-0.944-2.109-2.109
			v-31.476c0-1.165,0.944-2.109,2.109-2.109h49.389c1.165,0,2.109,0.944,2.109,2.109v31.476
			C426.444,368.769,425.5,369.713,424.336,369.713z"/>
		<path style="opacity:0.6;fill:#812C3A;" d="M424.499,336.616c-0.229-0.297-24.858,16.852-24.858,16.852
			s-24.68-17.103-24.858-16.852c-0.178,0.251,20.34,16.079,20.34,16.079s-18.397,12.596-18.024,13.172
			c0.285,0.439,13.217-7.929,19.345-11.93l3.158,2.119l3.346-1.996c6.183,4.037,18.804,12.201,19.158,11.807
			c0.469-0.523-17.624-13.023-17.624-13.023S424.728,336.912,424.499,336.616z"/>
	</g>
	<g>
		<path style="fill:#F9E6A7;" d="M87.954,356.462c0-7.628-6.184-13.812-13.812-13.812c-7.628,0-13.812,6.184-13.812,13.812
			c0,5.326,3.02,9.941,7.436,12.245v5.53h12.752v-5.53C84.934,366.403,87.954,361.789,87.954,356.462z"/>
		<polygon style="fill:#812C3A;" points="81.994,372.577 66.289,372.577 66.289,376.186 68.055,376.186 69.393,380.429 
			78.89,380.429 80.228,376.186 81.994,376.186 		"/>
		<g>
			<g>
				<polygon style="fill:#812C3A;" points="70.278,374.083 69.436,373.945 70.757,365.873 69.346,358.017 79.146,358.017 
					77.732,365.609 79.053,373.678 78.211,373.816 76.866,365.6 78.118,358.87 70.367,358.87 71.623,365.867 				"/>
			</g>
			<g>
				<path style="fill:#812C3A;" d="M68.27,359.037c-1.1,0-1.996-0.896-1.996-1.997c0-1.101,0.895-1.997,1.996-1.997
					c1.101,0,1.997,0.896,1.997,1.997C70.266,358.141,69.371,359.037,68.27,359.037z M68.27,355.898
					c-0.63,0-1.143,0.513-1.143,1.143c0,0.63,0.513,1.143,1.143,1.143c0.631,0,1.144-0.513,1.144-1.143
					C69.413,356.41,68.9,355.898,68.27,355.898z"/>
			</g>
			<g>
				<path style="fill:#812C3A;" d="M80.202,359.037c-1.101,0-1.997-0.896-1.997-1.997c0-1.101,0.895-1.997,1.997-1.997
					s1.997,0.896,1.997,1.997C82.199,358.141,81.303,359.037,80.202,359.037z M80.202,355.898c-0.631,0-1.144,0.513-1.144,1.143
					c0,0.63,0.513,1.143,1.144,1.143s1.144-0.513,1.144-1.143C81.346,356.41,80.833,355.898,80.202,355.898z"/>
			</g>
		</g>
		<g>
			<path style="fill:#F9E6A7;" d="M74.141,340.076c-0.318,0-0.576-0.258-0.576-0.576v-6.605c0-0.318,0.258-0.576,0.576-0.576
				s0.576,0.258,0.576,0.576v6.605C74.717,339.819,74.459,340.076,74.141,340.076z"/>
		</g>
		<g>
			<path style="fill:#F9E6A7;" d="M82.736,342.321c-0.1,0-0.202-0.026-0.294-0.081c-0.273-0.163-0.362-0.517-0.199-0.789
				l3.385-5.671c0.163-0.273,0.516-0.365,0.789-0.199c0.273,0.163,0.362,0.517,0.199,0.789l-3.385,5.671
				C83.123,342.22,82.932,342.321,82.736,342.321z"/>
		</g>
		<g>
			<path style="fill:#F9E6A7;" d="M88.581,348.355c-0.202,0-0.398-0.106-0.504-0.295c-0.155-0.277-0.055-0.628,0.222-0.783
				l5.764-3.223c0.278-0.157,0.628-0.056,0.784,0.222c0.155,0.277,0.055,0.628-0.222,0.783l-5.764,3.223
				C88.772,348.331,88.676,348.355,88.581,348.355z"/>
		</g>
		<g>
			<path style="fill:#F9E6A7;" d="M97.356,357.636c-0.001,0-0.002,0-0.003,0l-6.604-0.036c-0.318-0.002-0.574-0.261-0.572-0.579
				c0.002-0.317,0.259-0.572,0.576-0.572c0.001,0,0.002,0,0.003,0l6.604,0.036c0.318,0.002,0.574,0.261,0.572,0.579
				C97.93,357.38,97.673,357.636,97.356,357.636z"/>
		</g>
		<g>
			<path style="fill:#F9E6A7;" d="M65.743,341.461c-0.196,0-0.387-0.1-0.495-0.281l-3.385-5.671
				c-0.163-0.273-0.074-0.626,0.199-0.789c0.272-0.163,0.626-0.073,0.789,0.199l3.385,5.671c0.163,0.273,0.074,0.626-0.199,0.789
				C65.945,341.435,65.843,341.461,65.743,341.461z"/>
		</g>
		<g>
			<path style="fill:#F9E6A7;" d="M59.898,347.495c-0.095,0-0.191-0.023-0.28-0.073l-5.764-3.222
				c-0.277-0.155-0.377-0.506-0.222-0.783c0.156-0.277,0.506-0.378,0.784-0.222l5.764,3.222c0.277,0.155,0.377,0.506,0.222,0.783
				C60.296,347.389,60.1,347.495,59.898,347.495z"/>
		</g>
		<g>
			<path style="fill:#F9E6A7;" d="M51.124,356.777c-0.317,0-0.574-0.256-0.576-0.572c-0.002-0.318,0.255-0.577,0.572-0.579
				l6.604-0.036c0.002,0,0.003,0,0.003,0c0.317,0,0.574,0.256,0.576,0.572c0.002,0.318-0.255,0.577-0.572,0.579l-6.604,0.036
				C51.125,356.777,51.124,356.777,51.124,356.777z"/>
		</g>
	</g>
	<g>
		<path style="fill:#FFFFFF;stroke:#3AB5A6;stroke-miterlimit:10;" d="M469.745,320.07H376.72c-1.95,0-3.531-1.581-3.531-3.531
			v-53.317c0-1.95,1.581-3.531,3.531-3.531h93.025c1.95,0,3.531,1.581,3.531,3.531v53.317
			C473.276,318.489,471.696,320.07,469.745,320.07z"/>
		<path style="opacity:0.64;fill:#3AB5A6;" d="M466.319,311.02h-86.173c-1.806,0-3.271-1.464-3.271-3.271v-41.119
			c0-1.806,1.464-3.271,3.271-3.271h86.173c1.806,0,3.271,1.464,3.271,3.271v41.119C469.59,309.556,468.126,311.02,466.319,311.02z"
			/>
		<g>
			<path style="opacity:0.64;fill:#3AB5A6;" d="M467.787,316.286h-89.109c-0.685,0-1.241-0.555-1.241-1.241s0.555-1.241,1.241-1.241
				h89.109c0.685,0,1.241,0.555,1.241,1.241S468.473,316.286,467.787,316.286z"/>
		</g>
		<g>
			<path style="fill:#812C3A;" d="M378.678,313.805c-0.685,0-1.241,0.555-1.241,1.241s0.555,1.241,1.241,1.241h26.524
				c-0.127-0.838-0.219-1.671-0.234-2.481H378.678z"/>
		</g>
		<circle style="opacity:0.35;fill:#FFFFFF;" cx="423.233" cy="285.154" r="16.275"/>
		<path style="fill:#FFFFFF;" d="M417.826,278.197v13.916c0,0.891,0.983,1.433,1.736,0.956l11.008-6.958
			c0.703-0.444,0.703-1.469,0-1.913l-11.008-6.958C418.808,276.764,417.826,277.305,417.826,278.197z"/>
		<circle style="fill:#812C3A;" cx="405.388" cy="315.001" r="2.39"/>
	</g>
	<g>
		<path style="fill:#FFFFFF;" d="M260.196,217.167c3.967-2.85,6.381-6.603,6.381-10.717c0-8.909-11.296-16.13-25.231-16.13
			s-25.231,7.222-25.231,16.13s11.296,16.13,25.231,16.13c3.537,0,6.902-0.467,9.958-1.307c5.241,3.765,12.397,9.359,12.397,9.359
			L260.196,217.167z"/>
		<g>
			<circle style="fill:#812C3A;" cx="230.348" cy="206.434" r="2.046"/>
		</g>
		<g>
			<circle style="fill:#812C3A;" cx="241.56" cy="206.434" r="2.046"/>
		</g>
		<g>
			<circle style="fill:#812C3A;" cx="252.772" cy="206.434" r="2.046"/>
		</g>
	</g>
	<g>
		<g>
			<path style="opacity:0.2;fill:#3AB5A6;" d="M123.857,117.308H65.985c-1.281,0-2.32-1.039-2.32-2.32V58.603
				c0-1.281,1.039-2.32,2.32-2.32h57.872c1.281,0,2.32,1.039,2.32,2.32v56.384C126.177,116.269,125.138,117.308,123.857,117.308z"/>
			<rect x="74.296" y="92.435" style="opacity:0.7;fill:#3AB5A6;" width="6.857" height="21.32"/>
			<rect x="95.617" y="88.328" style="opacity:0.7;fill:#3AB5A6;" width="6.857" height="25.378"/>
			<rect x="106.014" y="79.627" style="opacity:0.7;fill:#3AB5A6;" width="6.857" height="33.988"/>
			<rect x="84.52" y="83.707" style="opacity:0.7;fill:#3AB5A6;" width="7.107" height="30.048"/>
			<g>
				<g>
					<polygon style="fill:#F9E6A7;" points="72.848,80.765 72.032,79.853 85.664,67.665 97.001,75.834 115.636,62.875 
						116.334,63.88 96.988,77.333 85.747,69.233 					"/>
				</g>
				<circle style="fill:#812C3A;" cx="72.44" cy="80.309" r="1.866"/>
				<circle style="fill:#812C3A;" cx="85.705" cy="68.449" r="1.866"/>
				<circle style="fill:#812C3A;" cx="96.995" cy="76.583" r="1.866"/>
				<circle style="fill:#812C3A;" cx="115.985" cy="63.377" r="1.866"/>
			</g>
		</g>
		<g>
			<g>
				<polygon style="fill:#812C3A;" points="72.848,80.765 72.032,79.853 85.664,67.665 97.001,75.834 115.636,62.875 116.334,63.88 
					96.988,77.333 85.747,69.233 				"/>
			</g>
			<circle style="fill:#EF7D65;" cx="72.44" cy="80.309" r="1.866"/>
			<circle style="fill:#EF7D65;" cx="85.705" cy="68.449" r="1.866"/>
			<circle style="fill:#EF7D65;" cx="96.995" cy="76.583" r="1.866"/>
			<circle style="fill:#EF7D65;" cx="115.985" cy="63.377" r="1.866"/>
		</g>
	</g>
	<g>
		<circle style="opacity:0.64;fill:#3AB5A6;" cx="68.899" cy="280.108" r="33.125"/>
		<path style="fill:#F9E6A7;" d="M75.313,247.609c-2.076-0.407-4.219-0.626-6.414-0.626c-7.484,0-14.386,2.484-19.932,6.669
			l19.932,26.456L75.313,247.609z"/>
		<path style="fill:#EF7D65;" d="M100.032,268.772c-4.63-12.711-16.821-21.789-31.133-21.789c-1.517,0-3.007,0.111-4.47,0.309
			l4.47,32.817L100.032,268.772z"/>
		<circle style="fill:none;stroke:#812C3A;stroke-width:2;stroke-miterlimit:10;" cx="68.899" cy="280.108" r="33.125"/>
	</g>
	<g>
		<g>
			<path style="opacity:0.64;fill:#3AB5A6;" d="M449.837,181.223h-59.706c-2.189,0-3.963-1.774-3.963-3.963v-73.531
				c0-2.189,1.774-3.963,3.963-3.963h59.706c2.189,0,3.963,1.774,3.963,3.963v73.531C453.8,179.449,452.026,181.223,449.837,181.223
				z"/>
			<path style="fill:#FFFFFF;" d="M442.339,174.111h-44.067c-2.44,0-4.418-1.978-4.418-4.418v-56.802
				c0-2.44,1.978-4.418,4.418-4.418h44.067c2.44,0,4.418,1.978,4.418,4.418v56.802C446.757,172.134,444.779,174.111,442.339,174.111
				z"/>
			<path style="fill:#812C3A;" d="M426.289,96.925c-0.952,0-1.78-0.6-2.132-1.485c-0.78-1.963-2.682-3.353-4.924-3.353
				s-4.144,1.39-4.924,3.353c-0.351,0.884-1.18,1.485-2.132,1.485h-6.111c-1.261,0-2.283,1.022-2.283,2.283v2.02
				c0,1.261,1.022,2.283,2.283,2.283H432.4c1.261,0,2.283-1.022,2.283-2.283v-2.02c0-1.261-1.022-2.283-2.283-2.283H426.289z"/>
			
				<rect x="400.018" y="116.342" style="opacity:0.5;fill:none;stroke:#812C3A;stroke-linecap:round;stroke-linejoin:round;stroke-miterlimit:10;" width="11.631" height="11.631"/>
			
				<rect x="400.018" y="133.081" style="opacity:0.5;fill:none;stroke:#812C3A;stroke-linecap:round;stroke-linejoin:round;stroke-miterlimit:10;" width="11.631" height="11.631"/>
			
				<rect x="400.018" y="149.82" style="opacity:0.5;fill:none;stroke:#812C3A;stroke-linecap:round;stroke-linejoin:round;stroke-miterlimit:10;" width="11.631" height="11.631"/>
			<g>
				
					<line style="opacity:0.5;fill:none;stroke:#812C3A;stroke-linecap:round;stroke-linejoin:round;stroke-miterlimit:10;" x1="417.779" y1="119.264" x2="438.02" y2="119.264"/>
				
					<line style="opacity:0.5;fill:none;stroke:#812C3A;stroke-linecap:round;stroke-linejoin:round;stroke-miterlimit:10;" x1="417.779" y1="125.424" x2="438.02" y2="125.424"/>
			</g>
			<g>
				
					<line style="opacity:0.5;fill:none;stroke:#812C3A;stroke-linecap:round;stroke-linejoin:round;stroke-miterlimit:10;" x1="417.779" y1="135.816" x2="438.02" y2="135.816"/>
				
					<line style="opacity:0.5;fill:none;stroke:#812C3A;stroke-linecap:round;stroke-linejoin:round;stroke-miterlimit:10;" x1="417.779" y1="141.976" x2="438.02" y2="141.976"/>
			</g>
			<g>
				
					<line style="opacity:0.5;fill:none;stroke:#812C3A;stroke-linecap:round;stroke-linejoin:round;stroke-miterlimit:10;" x1="417.779" y1="152.369" x2="438.02" y2="152.369"/>
				
					<line style="opacity:0.5;fill:none;stroke:#812C3A;stroke-linecap:round;stroke-linejoin:round;stroke-miterlimit:10;" x1="417.779" y1="158.529" x2="438.02" y2="158.529"/>
			</g>
			<g>
				<path style="fill:#812C3A;" d="M405.833,124.804c-0.124,0-0.249-0.046-0.344-0.138l-3.031-2.914
					c-0.198-0.19-0.203-0.504-0.014-0.702c0.19-0.197,0.503-0.204,0.702-0.014l2.691,2.588l7.311-6.832
					c0.201-0.187,0.514-0.177,0.701,0.024c0.188,0.2,0.177,0.515-0.023,0.702l-7.654,7.152
					C406.076,124.76,405.955,124.804,405.833,124.804z"/>
			</g>
			<g>
				<path style="fill:#812C3A;" d="M405.833,142.058c-0.124,0-0.249-0.046-0.344-0.138l-3.031-2.914
					c-0.198-0.19-0.203-0.504-0.014-0.702c0.19-0.199,0.503-0.205,0.702-0.014l2.691,2.588l7.311-6.831
					c0.201-0.187,0.514-0.177,0.701,0.023c0.188,0.201,0.177,0.514-0.023,0.701l-7.654,7.153
					C406.077,142.014,405.955,142.058,405.833,142.058z"/>
			</g>
			<g>
				<path style="fill:#812C3A;" d="M405.833,159.31c-0.124,0-0.248-0.046-0.344-0.138l-3.031-2.914
					c-0.198-0.19-0.203-0.504-0.014-0.702c0.19-0.198,0.503-0.205,0.702-0.014l2.691,2.587l7.311-6.831
					c0.201-0.187,0.514-0.178,0.701,0.023c0.188,0.201,0.177,0.514-0.023,0.701l-7.654,7.153
					C406.076,159.266,405.955,159.31,405.833,159.31z"/>
			</g>
		</g>
		<path style="fill:#FCC790;" d="M416.913,182.997c0,0,2.69-7.191,3.782-7.846c1.092-0.655,7.785-2.286,8.949-1.731
			c1.165,0.555,3.712,4.44,3.785,5.095s-2.475,0.801-3.421,0.509c-0.946-0.291-1.674-1.82-2.038-1.82s-2.875,0.946-3.002,1.237
			c-0.127,0.291,3.803,8.443-4.567,10.99C420.401,189.432,417.356,188.262,416.913,182.997z"/>
		<path style="fill:#FCC790;" d="M417.59,181.223c0,0-15.328,40.364-17.243,40.957c-1.776,0.55-7.852-4.899-15.171-13.758
			c-3.348,5.95-7.366,11.549-10.525,17.517c9.627,7.643,25.543,19.184,30.248,19.512c7.261,0.507,17.418-36.993,20.889-55.293
			c4.028-0.576,5.956-0.328,14.663-8.935H417.59z"/>
		<path style="opacity:0.2;fill:#812C3A;" d="M434.515,181.223c-3.695,2.245-8.899,2.947-10.155,4.832c-8,15-8,33-19,47
			c-5,7-12-1-15-6c-1.562-2.342,0.532-6.514,2.002-10.61c-2.149-2.17-4.586-4.876-7.186-8.022
			c-3.348,5.95-7.366,11.549-10.525,17.517c9.627,7.643,25.543,19.184,30.248,19.512c7.261,0.507,17.418-36.993,20.889-55.293
			c4.028-0.576,5.956-0.328,14.663-8.935H434.515z"/>
		<g>
			<g>
				<path style="fill:#812C3A;" d="M356.39,206.576c2.045-13.145,6.471-70.137-5.197-89.767
					c-14.616-24.589-52.863-20.748-57.34,5.119c-4.638,26.793-3.584,85.297-1.474,89.914
					C294.489,216.458,353.369,225.994,356.39,206.576z"/>
				<path style="fill:#591320;" d="M342.194,202.267c-14.022,5.453-25.616-1.231-35.729-10.125
					c-1.721-13.015-3.002-26.445,0.729-39.875c0.43-20.537,6.725-26.893,19.725-36.893c3-2-9.016-9.874-7.842-10.326
					c0.691-0.266,7.005,5.201,15.206,9.806c5.74,3.223,13.454,5.05,16.336,8.344c7.506,8.463,4.286,42.201,4.286,61.201
					c0.292,2.922,0.516,4.393,1.226,5.229C352.491,195.157,348.042,199.761,342.194,202.267z"/>
				<path style="opacity:0.25;fill:#F9E6A7;" d="M345.734,112.757c1.1,0.983-6.435-8.86-16.674-8.86
					c-2.121,0,5.455,2.346,5.039,2.762s-2.601-0.926-3.164-0.26c-0.278,0.329,2.346,0.865,5.142,2.296
					c2.866,1.466,5.915,3.822,6.21,3.653c0.583-0.333-2.533-2.997-1.68-2.679C342.561,110.396,344.394,111.56,345.734,112.757z"/>
				<path style="opacity:0.25;fill:#F9E6A7;" d="M315.109,106.09c0.549-1.74-13.097,1.637-15.549,12.327
					c-0.474,2.067,5.056-4.032,5.504-3.439s-1.443,3.393-0.693,4.245c0.37,0.421,2.562-2.831,5.473-4.789
					c2.984-2.007,5.986-4.108,5.845-4.468c-0.277-0.711-5.019,0.956-4.297,0.302C313.042,108.771,314.641,107.571,315.109,106.09z"
					/>
			</g>
			<path style="fill:#FCC790;" d="M349.774,390.825c1.105-11.263,1.952-19.514,2.184-20.816c0.803-4.507,7.325-63.175,7.684-78.889
				c0.359-15.714-3.198-23.991-3.198-23.991s-20.086,6.5-52.382,1.611c0,0-8.906,5.238-9.624,30.73
				c-0.718,25.492,8.376,82.669,8.376,82.669s-0.729,4.784-1.372,11.958C317.68,395.847,334.105,394.719,349.774,390.825z"/>
			<path style="opacity:0.25;fill:#EF7D65;" d="M351.958,370.009c0.747-4.192,6.443-55.253,7.522-75.003
				c-10.406,2.592-22.5,6.475-25.411,15.933c-2.105,28.013-3.444,54.722-4.557,83.336c6.842-0.647,13.62-1.8,20.262-3.451
				C350.879,379.562,351.726,371.311,351.958,370.009z"/>
			<path style="fill:#FCC790;" d="M340.995,160.912c0,0-3.006,9.594,1.406,16.64c0.572,0.913,5.285,1.897,5.646,2.927
				c3.144,8.971-5.618,21.474-12.247,21.344c-6.674-0.131-27.323-16.044-19.798-23.266c0.812-0.779,4.873-2.157,5.434-3.169
				c2.77-4.992,2.016-13.896,2.016-13.896L340.995,160.912z"/>
			<path style="opacity:0.2;fill:#812C3A;" d="M342.402,177.552c-4.413-7.046-1.406-16.64-1.406-16.64l-17.543,0.579
				c0,0,0.754,8.904-2.016,13.896c-0.033,0.059-0.08,0.12-0.136,0.182c6.588,4.143,14.855,5.443,21.756,2.477
				C342.741,177.879,342.503,177.714,342.402,177.552z"/>
			<path style="fill:#EF7D65;" d="M359.165,346.483c2.839-20.971,2.536-45.447,2.275-53.601
				c-0.514-16.028-5.323-26.117-5.323-26.117s-22.211,6.5-54.507,1.611c0,0-8.637,7.372-9.624,32.855
				c-0.571,14.739-0.201,31.695,1.312,45.596C310.848,352.472,343.446,351.004,359.165,346.483z"/>
			<path style="opacity:0.2;fill:#591320;" d="M361.429,292.613c-0.559-15.87-5.312-25.848-5.312-25.848s-22.211,6.5-54.507,1.611
				c0,0-8.637,7.372-9.624,32.855c-0.571,14.739-0.201,31.695,1.312,45.596c4.942,1.589,11.077,2.615,17.692,3.167
				C303.124,311.284,310.976,291.013,361.429,292.613z"/>
			<g>
				<path style="fill:#3AB5A6;" d="M379.838,231.424c3.15-5.217,7.937-12.792,11.53-17.671
					c-9.934-11.423-23.88-27.063-25.596-28.816c-4.958-5.063-23.695-8.898-23.695-8.898s2.508,10.85-3.609,13.206l-2.104,10.316
					l-3.607-9.873c-9.672-1.464-12.441-13.502-12.441-13.502s-26.62,7.401-33.748,14.024s-7.087,43.932-6.765,56.033l17.908-0.467
					l1.914-16.722c0.305,1.755,0.726,3.601,1.304,5.544c5.29,17.781-5.673,41.025-8.13,48.073
					c19.155,8.178,48.697,4.986,68.805-1.095c-1.265-7.648-7.008-24.374-7.167-28.852c-0.352-9.953,5.955-23.556,6.626-35.803
					C365.585,220.763,372.641,226.166,379.838,231.424z"/>
				<path style="opacity:0.2;fill:#591320;" d="M391.367,213.754c-0.693-0.797-1.405-1.617-2.129-2.45
					c-3.343,3.101-9.032,7.282-10.946,7.697c-1.915,0.415-11.919-6.121-17.944-16.138c0.429,4.887,0.256,8.977-0.227,12.133
					c-15.082,11.369-35.483,22.519-51.824,12.863c-6.216-3.705-7.813-19.566-9.113-19.566c-0.854,0-3.514,21.759-6.251,25.524
					c-2.737,3.765-6.877,6.281-13.233,5.581c0.013,2.71,0.054,5.059,0.101,6.848l17.908-0.467l1.914-16.722
					c0.305,1.755,0.726,3.601,1.304,5.544c5.29,17.781-5.673,41.025-8.13,48.073c2.594,1.325,10.008,3.297,13.216,3.718
					c5.642-22.583,27.211-41.373,48.973-40.364c1.247-7.412,5.287-17.853,6.113-29.074c4.527,3.839,11.564,9.227,18.74,14.47
					C382.988,226.208,387.775,218.633,391.367,213.754z"/>
				<g style="opacity:0.25;">
					<path style="fill:#591320;" d="M338.061,286.042c0.016,0,0.032-0.001,0.048-0.002c0.275-0.025,0.476-0.257,0.45-0.519
						c-1.964-19.479-1.11-33.138-0.356-45.19c0.776-12.407,1.509-24.126-0.957-39.804c-0.041-0.259-0.293-0.434-0.569-0.4
						c-0.273,0.039-0.461,0.281-0.42,0.541c2.45,15.58,1.721,27.25,0.948,39.607c-0.756,12.086-1.612,25.784,0.359,45.337
						C337.589,285.858,337.806,286.042,338.061,286.042z"/>
				</g>
				<path style="opacity:0.2;fill:#591320;" d="M344.875,205.012c-1-4-3.512-8.524-5.512-12.524c-0.45,1.465-1.65,5.632-2.65,8.632
					c-1.021-1.602-3.09-8.169-3.972-9.555c-2.401,3.659-4.679,9.648-6.322,15.65c-8.813-8.012-18.784-14.859-20.653-26.466
					c7.131-2.499,14.549-4.561,14.549-4.561s2.604,12.161,12.445,13.506l3.604,9.869l2.104-10.316
					c7.314-1.938,3.609-13.206,3.609-13.206s8.369,1.673,14.74,4.116C354.923,189.605,352.352,198.469,344.875,205.012z"/>
			</g>
			<path style="fill:#FFFFFF;" d="M325.951,201.12c1.914-3.828,3.835-7.655,6.525-11.483c-9.442-1.654-12.161-13.449-12.161-13.449
				s-4.211,1.172-9.726,2.997C313.336,188.135,318.27,195.999,325.951,201.12z"/>
			<path style="fill:#FFFFFF;" d="M346.142,200.057c4.167-5.834,6.383-14.356,6.383-21.513l-10.449-2.503
				c0,0,2.497,10.81-3.578,13.193C342.666,191.354,345.214,194.49,346.142,200.057z"/>
			<path style="fill:#FCC790;" d="M284.591,245.995l33.925-25.956c0,0,5.189-13.746,7.21-14.65
				c2.021-0.904,15.399-2.527,15.399-2.527c0.55,2.988-12.628,6.154-12.628,6.154s3.642,1.346,1.958,4.488
				c0,0,3.497,0.306,1.441,4.014c1.137,0.383,2.163,2.627-0.436,3.651c0,0-2.318,6.037-4.858,8.186
				c-2.54,2.149-5.957,2.173-5.957,2.173s-27.259,33.302-36.05,33.516c-3.348,0.081-3.786-18.987-3.786-18.987L284.591,245.995z"/>
			<path style="opacity:0.3;fill:#EF7D65;" d="M330.455,213.503c1.538-3.372-1.958-4.488-1.958-4.488s13.177-3.166,12.628-6.154
				c0,0-13.378,1.622-15.399,2.527c-0.294,0.131-0.656,0.54-1.058,1.132c2.025,18.884-14.84,32.443-29.495,44.511
				c-5.014,3.342-10.717,2.484-14.209-1.386c0.313,5.519,1.213,15.456,3.632,15.398c8.79-0.214,36.05-33.516,36.05-33.516
				s3.417-0.024,5.957-2.173c2.54-2.149,4.858-8.186,4.858-8.186c3.327-1.846,0.436-3.651,0.436-3.651
				S334.043,214.098,330.455,213.503z"/>
			<g>
				<g>
					<g>
						<path style="fill:#FCC790;" d="M314.138,158.195c-0.18-0.937-0.309-1.565-0.359-1.807
							c-5.079,2.865-12.294-4.319-11.311-10.092c0.983-5.773,7.352-5.646,9.304-1.835c-2.898-12.901,12.267-20.606,17.64-27.611
							c8.714,4.122,19.985,2.319,22.602,16.669c0.017,0.095,0.038,0.173,0.063,0.238c0.206,2.004,0.363,4.126,0.419,6.225
							c0.334,12.604-2.05,27.928-12.311,29.709C332.744,170.982,318.917,167.489,314.138,158.195z"/>
						<path style="opacity:0.2;fill:#812C3A;" d="M330.568,119.515c-3.605,7.161-16.057,12.612-16.181,23.128
							c-1.688,3.939-2.838,1.382-2.615,1.817c-2.898-12.901,12.267-20.606,17.64-27.611c8.714,4.122,19.985,2.319,22.602,16.669
							c0.017,0.095,0.038,0.173,0.063,0.238c0.113,1.103,0.206,2.242,0.281,3.393C347.158,122.333,336.69,123.538,330.568,119.515z"
							/>
					</g>
					<path style="opacity:0.2;fill:#812C3A;" d="M309.976,147.742c-1.301-1.819-3.573-2.25-3.69-0.038
						c0.168,4.047,3.652,5.568,5.685,5.595C311.693,151.342,311.129,149.474,309.976,147.742z"/>
					<g>
						<path style="fill:#EF7D65;" d="M343.546,154.231c0,0-2.37-1.117-3.479-0.842c-0.783,0.194-1.006,1.218-1.66,1.284
							c-0.377,0.038-1.331-0.871-2.046-0.756c-0.716,0.115-5.159,2.21-5.159,2.21s2.785,4.313,7.793,3.507
							C344.003,158.828,343.546,154.231,343.546,154.231z"/>
						<path style="opacity:0.5;fill:#EF7D65;" d="M327.424,149.544c0.235,1.587-1.514,3.161-3.907,3.515
							c-2.392,0.354-4.522-0.646-4.757-2.233c-0.235-1.587,1.514-3.161,3.907-3.515
							C325.059,146.957,327.189,147.957,327.424,149.544z"/>
						<path style="opacity:0.5;fill:#EF7D65;" d="M351.086,142.258c-2.392,0.354-4.142,1.928-3.907,3.515
							c0.235,1.587,2.365,2.587,4.757,2.233c0.125-0.019,0.241-0.054,0.362-0.079c0.148-1.905,0.214-3.824,0.215-5.71
							C352.056,142.183,351.58,142.185,351.086,142.258z"/>
						<g>
							<path style="opacity:0.4;fill:#812C3A;" d="M338.149,156.76c-2.925,0.512-6.048,0.352-8.477-0.65
								c-0.215-0.089-0.318-0.336-0.229-0.551c0.09-0.216,0.338-0.315,0.551-0.229c4.629,1.91,12.237,0.494,15.077-2.805
								c0.154-0.176,0.419-0.197,0.595-0.045c0.176,0.152,0.196,0.419,0.045,0.595C344.118,154.923,341.245,156.219,338.149,156.76z
								"/>
						</g>
						<g>
							<path style="fill:#812C3A;" d="M339.04,128.827c0.013-0.255,0.124-0.49,0.313-0.662c2.388-2.167,5.603-2.655,9.555-1.454
								c0.504,0.153,0.79,0.688,0.637,1.193c-0.106,0.349-0.395,0.603-0.754,0.665c-0.143,0.024-0.294,0.015-0.439-0.027
								c-3.308-1.005-5.832-0.665-7.714,1.039c-0.189,0.173-0.432,0.261-0.689,0.249c-0.256-0.012-0.492-0.123-0.663-0.313
								C339.115,129.327,339.027,129.082,339.04,128.827z"/>
							<path style="fill:#812C3A;" d="M328.269,130.488c-2.924-1.361-6.138-0.873-9.557,1.446c-0.436,0.296-0.55,0.892-0.254,1.328
								c0.122,0.179,0.303,0.313,0.51,0.376c0.279,0.086,0.577,0.042,0.819-0.122c2.859-1.941,5.371-2.365,7.672-1.299
								c0.232,0.11,0.49,0.123,0.731,0.036c0.242-0.087,0.435-0.264,0.543-0.497c0.108-0.232,0.119-0.491,0.032-0.731
								C328.676,130.787,328.5,130.595,328.269,130.488z"/>
						</g>
						
							<ellipse transform="matrix(0.9471 -0.321 0.321 0.9471 -29.2222 116.3161)" style="fill:#F9E6A7;" cx="338.125" cy="146.776" rx="1.394" ry="0.827"/>
						<g>
							<g>
								
									<ellipse transform="matrix(0.9902 -0.1398 0.1398 0.9902 -15.9077 49.7903)" style="fill:#812C3A;" cx="346.478" cy="138.134" rx="2.165" ry="2.746"/>
								
									<ellipse transform="matrix(0.9902 -0.1398 0.1398 0.9902 -16.5371 46.8423)" style="fill:#812C3A;" cx="325.178" cy="141.141" rx="2.165" ry="2.746"/>
								<path style="fill:#812C3A;" d="M348.018,136.834c1.165-0.291,1.612-1.359,2.1-1.127s-0.965,2.398-1.881,2.678
									C347.322,138.666,348.018,136.834,348.018,136.834z"/>
								<path style="fill:#812C3A;" d="M323.45,140.303c-1.2,0.043-1.925-0.86-2.33-0.501s1.592,2.037,2.549,2.053
									S323.45,140.303,323.45,140.303z"/>
							</g>
						</g>
						<g>
							<path style="opacity:0.4;fill:#812C3A;" d="M338.7,149.75c-0.326,0.004-0.657-0.038-0.981-0.128
								c-0.19-0.053-0.3-0.249-0.247-0.438c0.052-0.189,0.249-0.3,0.437-0.246c1.03,0.288,1.975-0.076,2.454-0.565
								c0.222-0.225,0.564-0.699,0.372-1.339c-0.152-0.504-0.814-1.327-1.515-2.198c-1.325-1.645-2.826-3.511-2.539-5.051
								c0.036-0.194,0.23-0.32,0.414-0.284c0.193,0.036,0.321,0.221,0.284,0.414c-0.228,1.219,1.226,3.025,2.394,4.475
								c0.778,0.967,1.451,1.802,1.642,2.44c0.217,0.723,0.019,1.466-0.545,2.041C340.322,149.429,339.529,149.739,338.7,149.75z"/>
							<path style="opacity:0.4;fill:#812C3A;" d="M341.171,146.741c-0.782-1.068-1.175,1.218-2.74,1.563
								c-1.566,0.345-2.457-0.41-2.628,0.373c-0.172,0.783,2.205,1.323,3.911,0.894S341.707,147.475,341.171,146.741z"/>
						</g>
						<path style="fill:#F9E6A7;" d="M337.785,157.832c0.074,0.45,0.75,0.714,1.51,0.589c0.76-0.125,1.316-0.592,1.241-1.042
							S337.711,157.381,337.785,157.832z"/>
					</g>
				</g>
			</g>
		</g>
	</g>
	<g>
		<g>
			<g>
				<g>
					<g>
						<path style="fill:#FFFFFF;" d="M120.524,186.156l-16.804,2.505c-1.641,0.245-3.169-0.887-3.414-2.528l-4.957-33.255
							c-0.245-1.641,0.887-3.169,2.528-3.414l16.804-2.505c1.641-0.245,3.169,0.887,3.414,2.528l4.957,33.256
							C123.297,184.383,122.165,185.912,120.524,186.156z"/>
						
							<rect x="100.183" y="151.52" transform="matrix(0.9891 -0.1474 0.1474 0.9891 -23.4014 17.9015)" style="opacity:0.5;fill:#812C3A;" width="17.734" height="30.561"/>
						<circle style="opacity:0.5;fill:#812C3A;" cx="111.698" cy="184.562" r="1.438"/>
					</g>
					<path style="fill:#FCC790;" d="M79.103,212.341c2.326-3.924,16.539-21.82,20.145-26.344c3.494-0.035,7.661-0.923,7.811-2.678
						c0.242-2.829-2.83-2.475-2.83-2.475s2.646-1.129,2.198-2.797c-0.448-1.668-3.803-3.192-3.803-3.192s3.333-0.435,2.951-3.222
						c-0.357-2.607-4.58-3.028-7.317-2.988c-1.293-3.036,7.936-1.417,6.516-4.883c-0.826-2.015-13.322-2.986-14.051,0
						c-0.729,2.986,2.169,5.319,2.169,5.319s-2.638-0.277-3.093,1.832c-0.296,1.375,0.599,2.896,1.018,3.261
						c0,0-1.446,1.441-1.975,3.978c-5.984,6.344-34.909,37.46-33.283,44.442c1.082,4.645,24.299,8.181,44.589,10.043
						c-0.268-7.819-0.615-15.643-0.805-23.379C89.727,210.803,81.155,211.948,79.103,212.341z"/>
					<path style="opacity:0.2;fill:#812C3A;" d="M87.36,194.055c1.173,1.173,2.519,1.735,3.935,2.006
						c2.904-3.709,5.618-7.131,7.239-9.167c-3.031-2.171-5.207-4.737-4.173-7.839c-1.711,0-4.151,0.726-6.074-0.314
						c-1.219,1.297-3.052,3.265-5.236,5.663C82.624,187.885,85.235,191.221,87.36,194.055z"/>
					<path style="opacity:0.2;fill:#812C3A;" d="M61.256,210.607c-3.77,5.341-6.201,9.822-5.697,11.985
						c1.082,4.645,24.299,8.181,44.589,10.043c-0.098-2.848-0.205-5.695-0.312-8.54C82.958,223.769,62.446,223.935,61.256,210.607z"
						/>
					<path style="fill:#FCC790;" d="M123.322,165.458c-1.029-0.557-4.941-1.361-5.313,0.707c-0.372,2.068,3.399,5.354,5.559,5.103
						C125.729,171.017,125.538,166.658,123.322,165.458z"/>
				</g>
			</g>
			<g>
				<path style="fill:#812C3A;" d="M125.097,228.481c-2.045-13.145-2.471-70.137,9.197-89.767
					c14.616-24.589,54.83-20.089,56.34,6.119c1.51,26.208,2.584,84.297,0.474,88.914
					C188.998,238.363,128.118,247.899,125.097,228.481z"/>
				<path style="fill:#591320;" d="M143.293,224.172c14.022,5.453,25.616-1.231,35.729-10.125
					c1.721-13.015,3.002-26.445-0.729-39.875c-0.43-20.537-6.725-26.893-19.725-36.893c-3-2,9.016-9.874,7.842-10.326
					c-0.691-0.266-7.005,5.201-15.206,9.806c-5.74,3.223-13.454,5.05-16.336,8.344c-7.506,8.463-4.286,42.201-4.286,61.201
					c-0.292,2.922-0.516,4.393-1.226,5.229C132.996,217.062,137.445,221.666,143.293,224.172z"/>
				<path style="opacity:0.25;fill:#F9E6A7;" d="M139.753,134.662c-1.1,0.983,6.435-8.86,16.674-8.86
					c2.121,0-5.455,2.346-5.039,2.762c0.416,0.416,2.601-0.926,3.164-0.26c0.278,0.329-2.346,0.865-5.142,2.296
					c-2.866,1.466-5.915,3.822-6.21,3.653c-0.583-0.333,2.533-2.997,1.68-2.679C142.926,132.301,141.093,133.464,139.753,134.662z"
					/>
				<path style="opacity:0.25;fill:#F9E6A7;" d="M170.378,127.995c-0.549-1.74,13.097,1.637,15.549,12.327
					c0.474,2.067-5.056-4.032-5.504-3.439c-0.448,0.594,1.443,3.393,0.693,4.245c-0.37,0.421-2.562-2.831-5.473-4.789
					c-2.984-2.007-5.986-4.108-5.845-4.468c0.277-0.711,5.019,0.956,4.297,0.302C172.445,130.676,170.846,129.476,170.378,127.995z"
					/>
			</g>
			<path style="fill:#FCC790;" d="M181.95,404.566c0,0,9.094-57.177,8.376-82.669c-0.718-25.492-9.624-30.73-9.624-30.73
				c-32.296,4.889-52.382-1.611-52.382-1.611s-3.556,8.277-3.198,23.991c0.359,15.714,6.881,74.382,7.684,78.889
				c0.247,1.388,1.194,10.681,2.408,23.108c16.015-0.386,31.948-0.824,47.883-1.398C182.521,408.314,181.95,404.566,181.95,404.566z
				"/>
			<path style="opacity:0.25;fill:#EF7D65;" d="M150.695,333.366c-2.91-9.459-15.005-13.341-25.411-15.933
				c1.079,19.75,6.775,70.811,7.522,75.003c0.247,1.388,1.194,10.681,2.408,23.108c6.669-0.161,13.326-0.333,19.971-0.517
				C154.086,387.045,152.759,360.83,150.695,333.366z"/>
			<path style="fill:#FCC790;" d="M143.769,183.338c0,0,3.006,9.594-1.406,16.64c-0.572,0.913-5.285,1.897-5.646,2.927
				c-3.144,8.971,5.618,21.474,12.247,21.344c6.674-0.131,27.323-16.044,19.798-23.266c-0.812-0.779-4.873-2.157-5.434-3.169
				c-2.77-4.992-2.016-13.896-2.016-13.896L143.769,183.338z"/>
			<path style="opacity:0.2;fill:#812C3A;" d="M142.363,199.978c4.413-7.046,1.406-16.64,1.406-16.64l17.543,0.579
				c0,0-0.754,8.904,2.016,13.896c0.033,0.059,0.08,0.12,0.136,0.182c-6.588,4.143-14.855,5.442-21.756,2.477
				C142.024,200.306,142.261,200.141,142.363,199.978z"/>
			<path style="fill:#EF7D65;" d="M125.599,368.909c-2.839-20.971-2.536-45.447-2.275-53.601
				c0.514-16.028,5.323-26.117,5.323-26.117s22.211,6.5,54.507,1.611c0,0,8.637,7.372,9.624,32.855
				c0.571,14.739,0.201,31.695-1.312,45.596C173.917,374.898,141.319,373.431,125.599,368.909z"/>
			<path style="opacity:0.2;fill:#591320;" d="M123.335,315.039c0.559-15.87,5.312-25.848,5.312-25.848s22.211,6.5,54.507,1.611
				c0,0,8.637,7.372,9.624,32.855c0.571,14.739,0.201,31.695-1.312,45.596c-4.942,1.589-11.077,2.615-17.692,3.167
				C192.779,323.658,165.895,315.001,123.335,315.039z"/>
			<g>
				<path style="fill:#3AB5A6;" d="M185.142,251.482l1.914,16.722l17.908,0.467c0.322-12.101,0.363-49.41-6.765-56.033
					s-33.748-14.024-33.748-14.024s-2.769,12.039-12.441,13.503l-3.607,9.873l-2.104-10.316c-6.116-2.357-3.609-13.206-3.609-13.206
					s-15.931,4.48-16.443,4.679c-8.328,3.238-27.054,4.845-37.227,6.256c-0.913,6.979-0.165,18.143,0.534,25.206
					c13.199,1.561,26.864-0.555,34.121-0.505c-0.011,0.845-0.02,1.699-0.026,2.573c-0.239,12.903,7.062,27.793,6.684,38.476
					c-0.159,4.478-5.902,21.204-7.167,28.852c20.107,6.081,49.65,9.272,68.805,1.095c-2.458-7.049-13.42-30.292-8.13-48.073
					C184.416,255.083,184.837,253.237,185.142,251.482z"/>
				<path style="opacity:0.2;fill:#591320;" d="M139.846,226.141c1-4,2.584-7.46,6.084-10.532c0.45,1.465,1.367,4.047,2.367,7.047
					c1.021-1.602,3.408-6.067,4.289-7.453c2.401,3.659,3.902,7.727,5.546,13.729c8.813-8.012,18.261-26.575,17.026-26.986
					c-5.688-1.894-10.707-3.333-10.707-3.333s-2.122,11.861-12.441,13.503l-3.607,9.873l-2.104-10.316
					c-6.174-2.253-3.609-13.206-3.609-13.206s-5.419,1.52-11.127,3.145C130.614,206.964,132.368,219.598,139.846,226.141z"/>
				<path style="opacity:0.2;fill:#591320;" d="M88.921,226.809c0.178,2.839,0.407,5.531,0.631,7.799
					c13.199,1.561,26.864-0.555,34.121-0.505c-0.006,0.49-0.01,0.993-0.015,1.491c1.719-4.116,3.702-8.13,3.702-12.539
					C114.228,225.681,101.862,229.84,88.921,226.809z"/>
				<g>
					<path style="opacity:0.2;fill:#591320;" d="M129.78,268.454c-1.554-9.236-5.84-20.214-6.107-30.189
						c16.356,11.623,34.69,22.717,52.795,12.018c6.216-3.705,7.813-19.567,9.113-19.567c0.854,0,3.514,21.759,6.251,25.524
						s6.877,6.28,13.233,5.581c-0.013,2.71-0.054,5.059-0.101,6.848l-17.908-0.467l-1.914-16.722
						c-0.305,1.755-0.726,3.601-1.304,5.544c-5.29,17.781,5.673,41.025,8.13,48.073c-2.594,1.325-10.008,3.297-13.216,3.718
						C173.11,286.235,151.542,267.445,129.78,268.454z"/>
					<g style="opacity:0.25;">
						<path style="fill:#591320;" d="M146.704,308.469c-0.016,0-0.032-0.001-0.048-0.002c-0.275-0.025-0.476-0.257-0.45-0.519
							c1.964-19.479,1.11-33.138,0.356-45.19c-0.776-12.407-1.509-24.126,0.957-39.804c0.041-0.259,0.293-0.434,0.569-0.4
							c0.273,0.039,0.461,0.281,0.42,0.541c-2.45,15.579-1.721,27.25-0.948,39.607c0.756,12.086,1.612,25.784-0.359,45.337
							C147.176,308.285,146.959,308.469,146.704,308.469z"/>
					</g>
				</g>
				<path style="fill:#FFFFFF;" d="M158.814,223.546c-1.914-3.828-3.835-7.655-6.525-11.483
					c9.442-1.654,12.161-13.449,12.161-13.449s4.211,1.172,9.726,2.997C171.428,210.562,166.494,218.426,158.814,223.546z"/>
				<path style="fill:#FFFFFF;" d="M138.622,222.483c-4.167-5.834-6.383-13.661-6.383-20.818l10.449-3.198
					c0,0-2.497,10.81,3.578,13.193C142.099,213.781,139.55,216.917,138.622,222.483z"/>
				<path style="fill:#FCC790;" d="M200.174,268.421l-33.925-25.956c0,0-5.189-13.746-7.21-14.65
					c-2.021-0.904-15.399-2.527-15.399-2.527c-0.55,2.988,12.628,6.154,12.628,6.154l-14.197-0.861
					c-0.663,2.251,8.787,4.151,13.03,4.975l-14.396,1.343c-0.338,2.48,12.164,3.045,12.164,3.045l-9.241,6.067
					c0,0,1.152,2.898,9.677-2.416c0,0,2.318,6.037,4.858,8.186c2.54,2.149,5.957,2.173,5.957,2.173s27.259,33.302,36.05,33.516
					c3.348,0.081,3.786-18.987,3.786-18.987L200.174,268.421z"/>
				<path style="opacity:0.3;fill:#EF7D65;" d="M140.704,236.899l14.396-1.343c-4.243-0.824-13.693-2.724-13.03-4.975l14.197,0.861
					c0,0-13.177-3.166-12.628-6.154c0,0,13.378,1.622,15.399,2.527c0.294,0.131,0.656,0.54,1.058,1.132
					c-2.025,18.884,14.84,32.443,29.495,44.511c5.014,3.342,10.717,2.484,14.209-1.386c-0.313,5.519-1.213,15.456-3.632,15.398
					c-8.79-0.214-36.05-33.516-36.05-33.516s-3.417-0.024-5.957-2.173c-2.54-2.149-4.858-8.186-4.858-8.186
					c-8.524,5.314-9.677,2.416-9.677,2.416l9.241-6.067C152.868,239.944,140.366,239.379,140.704,236.899z"/>
			</g>
			<g>
				<g>
					<path style="fill:#FCC790;" d="M170.565,180.816c0.18-0.937,0.309-1.565,0.359-1.807c5.079,2.865,12.294-4.319,11.311-10.092
						c-0.983-5.773-7.352-5.646-9.304-1.835c2.898-12.901-12.267-20.606-17.64-27.611c-8.714,4.122-19.985,2.319-22.602,16.669
						c-0.017,0.095-0.038,0.173-0.063,0.238c-0.206,2.004-0.363,4.126-0.419,6.225c-0.334,12.604,2.05,27.928,12.311,29.709
						C151.96,193.602,165.787,190.11,170.565,180.816z"/>
					<path style="opacity:0.2;fill:#812C3A;" d="M154.135,142.135c3.605,7.161,16.057,12.612,16.181,23.128
						c1.688,3.939,2.838,1.382,2.615,1.817c2.898-12.901-12.267-20.606-17.64-27.611c-8.714,4.122-19.985,2.319-22.602,16.669
						c-0.017,0.095-0.038,0.173-0.063,0.238c-0.113,1.103-0.206,2.242-0.281,3.393C137.545,144.954,148.014,146.158,154.135,142.135
						z"/>
				</g>
				<path style="opacity:0.2;fill:#812C3A;" d="M174.727,170.362c1.301-1.819,3.573-2.25,3.69-0.038
					c-0.168,4.047-3.652,5.568-5.685,5.595C173.01,173.963,173.574,172.095,174.727,170.362z"/>
				<g>
					<path style="fill:#EF7D65;" d="M141.158,176.852c0,0,2.37-1.117,3.479-0.842c0.783,0.194,1.006,1.218,1.66,1.284
						c0.377,0.038,1.331-0.871,2.046-0.756c0.716,0.115,5.159,2.21,5.159,2.21s-2.785,4.313-7.793,3.507
						C140.7,181.449,141.158,176.852,141.158,176.852z"/>
					<path style="opacity:0.5;fill:#EF7D65;" d="M157.28,172.165c-0.235,1.587,1.514,3.161,3.907,3.515
						c2.392,0.354,4.522-0.646,4.757-2.233c0.235-1.587-1.514-3.161-3.907-3.515C159.644,169.578,157.514,170.577,157.28,172.165z"
						/>
					<path style="opacity:0.5;fill:#EF7D65;" d="M133.618,164.879c2.392,0.354,4.142,1.928,3.907,3.515
						c-0.235,1.587-2.365,2.587-4.757,2.233c-0.125-0.019-0.241-0.054-0.362-0.079c-0.148-1.905-0.214-3.824-0.215-5.71
						C132.647,164.803,133.124,164.806,133.618,164.879z"/>
					<g>
						<path style="opacity:0.4;fill:#812C3A;" d="M146.554,179.381c2.925,0.512,6.048,0.352,8.477-0.65
							c0.215-0.089,0.318-0.336,0.229-0.551c-0.09-0.216-0.338-0.315-0.551-0.229c-4.629,1.909-12.237,0.494-15.077-2.805
							c-0.154-0.176-0.419-0.197-0.595-0.045c-0.176,0.152-0.196,0.419-0.045,0.595
							C140.585,177.544,143.459,178.839,146.554,179.381z"/>
					</g>
					<g>
						<path style="fill:#812C3A;" d="M145.663,151.447c-0.013-0.255-0.124-0.49-0.313-0.662c-2.388-2.167-5.603-2.655-9.555-1.454
							c-0.504,0.153-0.79,0.688-0.637,1.193c0.106,0.349,0.395,0.603,0.754,0.665c0.143,0.024,0.294,0.015,0.439-0.027
							c3.308-1.005,5.832-0.665,7.714,1.039c0.189,0.173,0.432,0.261,0.689,0.249c0.256-0.012,0.492-0.123,0.663-0.313
							C145.589,151.947,145.676,151.702,145.663,151.447z"/>
						<path style="fill:#812C3A;" d="M156.435,153.109c2.924-1.361,6.138-0.873,9.557,1.446c0.436,0.296,0.55,0.892,0.254,1.328
							c-0.122,0.179-0.303,0.313-0.51,0.376c-0.279,0.086-0.577,0.042-0.819-0.122c-2.859-1.941-5.371-2.365-7.672-1.299
							c-0.232,0.11-0.49,0.123-0.731,0.036c-0.242-0.087-0.435-0.264-0.543-0.497c-0.108-0.232-0.119-0.491-0.032-0.731
							C156.027,153.407,156.203,153.216,156.435,153.109z"/>
					</g>
					
						<ellipse transform="matrix(0.321 -0.9471 0.9471 0.321 -60.908 253.8357)" style="fill:#F9E6A7;" cx="146.578" cy="169.397" rx="0.827" ry="1.394"/>
					<g>
						<g>
							
								<ellipse transform="matrix(0.1398 -0.9902 0.9902 0.1398 -40.2723 275.1508)" style="fill:#812C3A;" cx="138.226" cy="160.754" rx="2.746" ry="2.165"/>
							
								<ellipse transform="matrix(0.1398 -0.9902 0.9902 0.1398 -24.9273 298.8284)" style="fill:#812C3A;" cx="159.526" cy="163.761" rx="2.746" ry="2.165"/>
							<path style="fill:#812C3A;" d="M136.685,159.455c-1.165-0.291-1.612-1.359-2.1-1.127c-0.488,0.233,0.965,2.398,1.881,2.678
								C137.382,161.287,136.685,159.455,136.685,159.455z"/>
							<path style="fill:#812C3A;" d="M161.253,162.923c1.2,0.043,1.925-0.86,2.33-0.501c0.405,0.359-1.592,2.037-2.549,2.053
								C160.077,164.491,161.253,162.923,161.253,162.923z"/>
						</g>
					</g>
					<g>
						<path style="opacity:0.4;fill:#812C3A;" d="M146.004,172.371c0.326,0.004,0.657-0.038,0.981-0.128
							c0.189-0.053,0.3-0.249,0.247-0.438c-0.052-0.189-0.249-0.3-0.437-0.246c-1.03,0.288-1.975-0.076-2.454-0.565
							c-0.222-0.225-0.564-0.699-0.372-1.339c0.152-0.504,0.814-1.327,1.515-2.198c1.325-1.645,2.826-3.511,2.539-5.051
							c-0.036-0.194-0.23-0.32-0.414-0.284c-0.193,0.036-0.321,0.221-0.284,0.414c0.228,1.219-1.226,3.025-2.394,4.475
							c-0.778,0.967-1.451,1.802-1.642,2.44c-0.217,0.723-0.019,1.466,0.545,2.041C144.381,172.05,145.174,172.36,146.004,172.371z"
							/>
						<path style="opacity:0.4;fill:#812C3A;" d="M143.533,169.362c0.782-1.068,1.175,1.218,2.74,1.563
							c1.566,0.345,2.457-0.41,2.628,0.373c0.172,0.783-2.205,1.323-3.911,0.894S142.996,170.095,143.533,169.362z"/>
					</g>
					<path style="fill:#F9E6A7;" d="M146.919,180.452c-0.074,0.45-0.75,0.714-1.51,0.589s-1.316-0.592-1.241-1.042
						S146.993,180.002,146.919,180.452z"/>
				</g>
			</g>
		</g>
	</g>
	<g>
		<g>
			<g>
				<path style="fill:#812C3A;" d="M274.514,348.961c5.889-11.929,6.746-62.993,1.495-85.216
					c-6.578-27.838-46.293-35.593-55.585-11.041s-15.535,77.196-9.657,88.657C213.083,345.877,265.814,366.582,274.514,348.961z"/>
				<path style="fill:#591320;" d="M241.82,342.581c-15.011,1.002-17.532-3.058-24.516-14.573
					c0.89-13.628-0.481-31.126,5.622-46.403c6.563-19.465,14.955-19.856,30.353-25.502c3.461-1.009-5.644-13.122-4.388-13.201
					c0.739-0.047,5.125,7.06,11.57,13.911c4.511,4.794,9.323,8.849,11.086,12.855c4.626,10.323,3.759,48.11-1.934,66.238
					C269.017,338.782,248.151,341.942,241.82,342.581z"/>
				<path style="opacity:0.25;fill:#F9E6A7;" d="M272.015,258.244c0.755,1.267-3.485-10.381-13.254-13.449
					c-2.023-0.635,4.502,3.872,3.98,4.145s-2.204-1.662-2.94-1.195c-0.363,0.231,1.979,1.528,4.218,3.731
					c2.296,2.258,4.499,5.418,4.831,5.346c0.656-0.143-1.519-3.618-0.8-3.06C269.695,255.04,271.095,256.7,272.015,258.244z"/>
				<path style="opacity:0.25;fill:#F9E6A7;" d="M244.794,242.708c1.045-1.495-12.986-2.362-18.528,7.103
					c-1.072,1.83,6.032-2.332,6.281-1.632c0.249,0.701-2.394,2.805-1.933,3.843c0.227,0.512,3.292-1.934,6.657-2.929
					c3.448-1.021,6.941-2.126,6.915-2.512c-0.051-0.762-5.074-0.592-4.19-1C242.019,244.646,243.904,243.981,244.794,242.708z"/>
			</g>
			<g>
				<path style="fill:#3AB5A6;" d="M273.688,328.009c6.351,2.285,22.758,45.333,23.206,50.258s-13.635,10.638-13.635,10.638
					l-13.645-31.023L273.688,328.009z"/>
			</g>
			<g style="opacity:0.2;">
				<path style="fill:#591320;" d="M295.04,371.731c1.027,2.542,1.045,3.038,1.854,6.537c1.114,4.819-13.635,10.638-13.635,10.638
					l-13.645-31.023l0.453-3.325C276.774,364.841,283.213,377.695,295.04,371.731z"/>
			</g>
			<path style="fill:#FCC790;" d="M249.903,300.743c0,0-3.006,9.594,1.406,16.64c0.572,0.913,5.285,1.897,5.646,2.927
				c3.144,8.971-4.555,23.599-11.184,23.469c-6.674-0.131-28.386-18.169-20.861-25.392c0.812-0.779,4.873-2.157,5.434-3.169
				c2.77-4.992,2.016-13.896,2.016-13.896L249.903,300.743z"/>
			<path style="opacity:0.2;fill:#812C3A;" d="M231.343,312.8c1.558-5.003,1.017-11.478,1.017-11.478l17.543-0.579
				c0,0-2.664,8.521,0.723,15.4C244.087,318.388,237.43,316.362,231.343,312.8z"/>
			<path style="fill:#591320;" d="M271.048,447.497c0.192-4.588,0.294-8.525,0.364-11.596c0.359-15.714-7.323-29.305-7.323-29.305
				s-21.148,6.5-53.445,1.611c0,0-8.906,6.301-9.624,31.793c-0.067,2.371-0.043,5.002,0.045,7.799
				C223.976,451.381,247.947,451.282,271.048,447.497z"/>
			<path style="fill:#3AB5A6;" d="M212.34,383.843c-0.475-2.665-1.236-6.468-2.379-9.412c-1.451-3.736-2.459-6.946-3.152-9.694
				l0.063,18.159c0,0-10.569,7.372-16.958,9.177c-0.187-0.623-0.351-1.278-0.455-1.985c-0.927-6.277-1.17-15.482-0.943-20.986
				c0.346-12.396,2.291-34.77,9.01-39.709c6.719-4.939,30.761-13.374,30.761-13.374s4.608,13.998,14.813,16.494l2.791,9.143
				l1.901-9.303c7.426-4.031,4.382-15.418,4.382-15.418s18.961,8.214,21.515,11.074c2.554,2.861,0.702,4.811-2.473,26.072
				c0.239,12.903-8.125,27.793-7.746,38.476c0.159,4.478,7.878,29.042,9.143,36.69c-20.107,6.081-53.853,4.923-73.008-3.255
				c1.003-2.877,11.943-24.387,13.068-29.044C213.48,389.412,212.34,383.843,212.34,383.843z"/>
			<path style="opacity:0.2;fill:#591320;" d="M253.995,348.961c-1-4-3.372-9.395-5.372-13.395c-0.45,1.465-1.733,3.089-2.733,6.089
				c-1.021-1.602-1.928-5.885-2.809-7.272c-2.401,3.659-6.593,8.503-8.237,14.506c-8.813-8.012-17.792-16.332-19.661-27.94
				c6.949-2.772,13.102-4.931,13.102-4.931s4.608,13.998,14.813,16.494l2.791,9.143l1.901-9.303
				c7.426-4.031,4.382-15.418,4.382-15.418s8.377,3.629,14.745,6.903C265.025,333.286,261.472,342.418,253.995,348.961z"/>
			<path style="opacity:0.2;fill:#591320;" d="M212.672,396.949c0.808-7.536-0.332-13.106-0.332-13.106
				c-0.475-2.665-1.236-6.468-2.379-9.412c-1.451-3.736-2.459-6.946-3.152-9.694l0.063,18.159c0,0-3.071,2.141-6.902,4.398
				c3.136-11.062,1.47-35.428,4.342-35.428c2.872,0,11.495,22.145,16.623,24.365c12.482,5.403,27.377,3.635,38.377-1.365
				c5.206-1.487,9.302-7.954,11.473-14.873c-1.657,11.359-7.638,23.48-7.317,32.564c0.159,4.478,7.878,29.042,9.143,36.69
				c-0.143,0.043-0.294,0.083-0.439,0.125c-12.269-5.302-19.221-17.656-30.861-22.506c-18.2-7.28-27.291,7.799-36.316,21.122
				c-1.896-0.612-3.703-1.275-5.392-1.996C200.607,423.115,211.547,401.606,212.672,396.949z"/>
			<path style="fill:#FFFFFF;" d="M255.145,343.18c-2.019-4.508-5.144-8.28-7.378-10.712l0.024-0.115
				c7.426-4.031,4.382-15.418,4.382-15.418s7.34,3.18,13.501,6.272C265.415,328.009,261.549,336.961,255.145,343.18z"/>
			<path style="fill:#FFFFFF;" d="M215.73,320.733c6.722-2.667,12.556-4.714,12.556-4.714s4.603,13.98,14.795,16.489
				c-2.568,3.077-6.459,7.166-8.784,11.273C226.392,338.588,221.428,329.889,215.73,320.733z"/>
			<g style="opacity:0.25;">
				<path style="fill:#591320;" d="M247.08,433.59c0.016,0,0.032-0.001,0.048-0.002c0.275-0.026,0.476-0.271,0.45-0.546
					c-1.964-20.475-1.11-34.831-0.356-47.499c0.776-13.041,1.509-25.358-0.957-41.838c-0.041-0.272-0.293-0.457-0.569-0.42
					c-0.273,0.041-0.461,0.295-0.42,0.569c2.45,16.375,1.721,28.643,0.948,41.63c-0.756,12.703-1.612,27.102,0.359,47.653
					C246.608,433.397,246.826,433.59,247.08,433.59z"/>
			</g>
			<g>
				<g>
					<path style="fill:#FCC790;" d="M226.531,290.384c0.195-0.934,0.317-1.563,0.365-1.806c-5.79,0.689-9.684-8.719-6.555-13.669
						c3.129-4.95,8.959-2.381,9.293,1.888c2.292-13.022,19.254-14.296,26.909-18.693c6.456,7.158,17.553,9.834,14.444,24.085
						c-0.02,0.094-0.031,0.174-0.034,0.243c-0.582,1.929-1.253,3.948-2.009,5.907C264.4,300.1,256.3,313.326,246.144,311.02
						C238.78,309.347,227.363,300.802,226.531,290.384z"/>
					<path style="opacity:0.2;fill:#812C3A;" d="M256.584,261.009c-6.084,5.221-19.675,5.459-23.837,15.117
						c-3.074,2.985-3.152,0.183-3.113,0.67c2.292-13.022,19.254-14.296,26.909-18.693c6.456,7.158,17.553,9.834,14.444,24.085
						c-0.02,0.094-0.031,0.174-0.034,0.243c-0.32,1.061-0.673,2.149-1.047,3.24C270.811,269.996,260.686,267.078,256.584,261.009z"
						/>
				</g>
				<path style="opacity:0.2;fill:#812C3A;" d="M226.714,279.134c-0.501-2.18-2.431-3.452-3.391-1.455
					c-1.403,3.8,1.227,6.545,3.093,7.353C226.912,283.118,227.111,281.177,226.714,279.134z"/>
				<g>
					<path style="fill:#EF7D65;" d="M255.198,298.046c0,0-1.757-1.943-2.887-2.116c-0.797-0.122-1.397,0.736-2.026,0.546
						c-0.363-0.11-0.893-1.316-1.598-1.485c-0.705-0.169-5.612,0.054-5.612,0.054s0.91,5.053,5.843,6.237
						C253.85,302.465,255.198,298.046,255.198,298.046z"/>
					<path style="opacity:0.5;fill:#EF7D65;" d="M242.123,287.514c-0.394,1.555-2.614,2.335-4.959,1.74s-3.925-2.337-3.531-3.892
						c0.394-1.555,2.614-2.335,4.959-1.741C240.936,284.216,242.517,285.959,242.123,287.514z"/>
					<path style="opacity:0.5;fill:#EF7D65;" d="M266.766,289.898c-2.344-0.594-4.565,0.185-4.959,1.74
						c-0.394,1.555,1.187,3.298,3.531,3.892c0.123,0.031,0.243,0.043,0.365,0.067c0.87-1.701,1.67-3.447,2.396-5.187
						C267.691,290.202,267.25,290.021,266.766,289.898z"/>
					<g>
						<path style="opacity:0.4;fill:#812C3A;" d="M249.244,298.303c-2.897-0.653-5.717-2.004-7.573-3.863
							c-0.164-0.165-0.164-0.432,0-0.597c0.166-0.164,0.433-0.161,0.597,0c3.537,3.544,11.104,5.167,14.994,3.215
							c0.21-0.103,0.463-0.021,0.566,0.188c0.104,0.208,0.02,0.462-0.188,0.566C255.46,298.905,252.309,298.994,249.244,298.303z"/>
					</g>
					<g>
						<path style="fill:#812C3A;" d="M260.819,272.865c0.11-0.231,0.303-0.405,0.544-0.49c3.038-1.081,6.193-0.294,9.379,2.336
							c0.406,0.335,0.464,0.939,0.129,1.346c-0.232,0.281-0.597,0.405-0.952,0.323c-0.142-0.033-0.277-0.099-0.394-0.194
							c-2.667-2.201-5.127-2.859-7.519-2.01c-0.241,0.087-0.499,0.075-0.731-0.036c-0.232-0.11-0.406-0.303-0.492-0.544
							C260.696,273.355,260.709,273.095,260.819,272.865z"/>
						<path style="fill:#812C3A;" d="M250.238,270.252c-2.175-2.382-5.329-3.169-9.377-2.344c-0.517,0.106-0.851,0.612-0.746,1.128
							c0.043,0.212,0.159,0.405,0.325,0.544c0.224,0.186,0.517,0.26,0.802,0.203c3.386-0.691,5.868-0.115,7.58,1.755
							c0.172,0.19,0.405,0.303,0.661,0.315c0.257,0.013,0.504-0.076,0.693-0.25c0.189-0.172,0.299-0.407,0.311-0.663
							C250.499,270.684,250.41,270.44,250.238,270.252z"/>
					</g>
					
						<ellipse transform="matrix(0.0683 -0.9977 0.9977 0.0683 -52.6193 521.8141)" style="fill:#F9E6A7;" cx="253.065" cy="289.079" rx="0.827" ry="1.394"/>
					<g>
						<g>
							
								<ellipse transform="matrix(0.2521 -0.9677 0.9677 0.2521 -77.6226 468.1941)" style="fill:#812C3A;" cx="264.101" cy="284.317" rx="2.746" ry="2.165"/>
							
								<ellipse transform="matrix(0.2521 -0.9677 0.9677 0.2521 -87.9413 443.9941)" style="fill:#812C3A;" cx="243.285" cy="278.893" rx="2.746" ry="2.165"/>
							<path style="fill:#812C3A;" d="M266.022,283.711c1.188,0.18,2.011-0.634,2.372-0.231c0.361,0.403-1.814,1.842-2.767,1.748
								C264.674,285.134,266.022,283.711,266.022,283.711z"/>
							<path style="fill:#812C3A;" d="M242.013,277.455c-1.124-0.422-1.446-1.535-1.957-1.36c-0.512,0.175,0.685,2.493,1.562,2.876
								C242.495,279.354,242.013,277.455,242.013,277.455z"/>
						</g>
					</g>
					<g>
						<path style="opacity:0.4;fill:#812C3A;" d="M252.45,292.045c-0.303-0.122-0.592-0.288-0.856-0.496
							c-0.155-0.122-0.181-0.345-0.059-0.499c0.121-0.154,0.345-0.182,0.499-0.059c0.84,0.663,1.852,0.69,2.483,0.423
							c0.292-0.123,0.79-0.428,0.859-1.092c0.054-0.524-0.24-1.538-0.552-2.612c-0.589-2.028-1.257-4.328-0.399-5.639
							c0.108-0.165,0.335-0.206,0.492-0.103c0.165,0.108,0.211,0.328,0.103,0.492c-0.679,1.038-0.033,3.263,0.487,5.052
							c0.346,1.192,0.645,2.222,0.576,2.884c-0.078,0.75-0.547,1.361-1.289,1.674C254.071,292.373,253.22,292.354,252.45,292.045z"
							/>
						<path style="opacity:0.4;fill:#812C3A;" d="M255.889,290.219c-0.31-1.287-1.553,0.672-3.131,0.387
							c-1.578-0.285-2.109-1.324-2.569-0.668c-0.46,0.656,1.526,2.07,3.265,2.331S256.102,291.102,255.889,290.219z"/>
					</g>
					<path style="fill:#F9E6A7;" d="M248.495,299.151c-0.105,0.444,0.418,0.948,1.167,1.125c0.75,0.177,1.442-0.04,1.547-0.484
						C251.314,299.348,248.6,298.707,248.495,299.151z"/>
				</g>
			</g>
		</g>
	</g>
	<g>
		<ellipse style="fill:#FCC790;" cx="250.202" cy="429.608" rx="170.324" ry="30.473"/>
		<ellipse style="opacity:0.3;fill:#812C3A;" cx="250.202" cy="429.608" rx="170.324" ry="30.473"/>
		<g>
			<ellipse style="fill:#F9E6A7;" cx="250.882" cy="424.608" rx="170.324" ry="30.473"/>
			<g>
				<path style="fill:#812C3A;" d="M109.072,427.264c0,0,16.842-1.123,25.325,0s14.471,3.244,15.594,5.489
					c1.123,2.246,9.731,2.745,11.228,1.372c1.497-1.372,28.568-1.871,43.164,6.362l18.838-31.937l-9.356-2.37l-96.184,12.974
					L109.072,427.264z"/>
				<path style="fill:#FFFFFF;" d="M112.598,419.98v4.791c0,0,29.455-3.133,38.854,6.026c2.577,2.511,7.654,2.409,10.154,1.16
					s29.992-1.932,42.489,6.767l17.027-30.198l-0.781-4.999L112.598,419.98z"/>
				<path style="opacity:0.2;fill:#3AB5A6;" d="M112.598,419.98v4.791c0,0,29.455-3.133,38.854,6.026
					c2.577,2.511,7.654,2.409,10.154,1.16s29.992-1.932,42.489,6.767l17.027-30.198l-0.781-4.999L112.598,419.98z"/>
				<path style="fill:#FFFFFF;" d="M109.908,420.925c0,0,33.518-3.428,45.683,8.196c25.573-8.196,49.159,6.41,49.159,6.41
					l17.131-32.639c0,0-17.38-11.058-41.959-4.106c-14.028-7.448-37.738-3.724-37.738-3.724L109.908,420.925z"/>
				<path style="opacity:0.64;fill:none;stroke:#3AB5A6;stroke-miterlimit:10;" d="M109.908,420.925c0,0,33.518-3.428,45.683,8.196
					c25.573-8.196,49.159,6.41,49.159,6.41l17.131-32.639c0,0-17.38-11.058-41.959-4.106c-14.028-7.448-37.738-3.724-37.738-3.724
					L109.908,420.925z"/>
				
					<line style="opacity:0.64;fill:none;stroke:#3AB5A6;stroke-miterlimit:10;" x1="179.922" y1="398.787" x2="155.591" y2="429.122"/>
				<path style="opacity:0.64;fill:none;stroke:#3AB5A6;stroke-miterlimit:10;" d="M126.799,411.934c0,0,21.693-5.753,34.06,4.273"
					/>
				<path style="opacity:0.64;fill:none;stroke:#3AB5A6;stroke-miterlimit:10;" d="M133.62,406.338c0,0,18.958-5.67,32.275,3.294"/>
				<path style="opacity:0.64;fill:none;stroke:#3AB5A6;stroke-miterlimit:10;" d="M140.466,400.51c0,0,17.276-5.176,30.924,3.359"
					/>
				<path style="opacity:0.64;fill:none;stroke:#3AB5A6;stroke-miterlimit:10;" d="M169.859,417.738c0,0,15.345-6.775,35.535,4.244"
					/>
				<path style="opacity:0.64;fill:none;stroke:#3AB5A6;stroke-miterlimit:10;" d="M175.614,410.843c0,0,15.894-7.058,33.22,4.273"
					/>
				<path style="opacity:0.64;fill:none;stroke:#3AB5A6;stroke-miterlimit:10;" d="M180.347,404.111c0,0,16.464-7.033,32.352,4.247"
					/>
			</g>
			<g>
				<path style="fill:#FFFFFF;" d="M274.439,431.634l-37.329-23.586c-0.811-0.513-1.243-1.456-1.101-2.405l0.028-0.185
					c0.027-0.184,0.185-0.32,0.371-0.32h52.674c0.287,0,0.468,0.309,0.328,0.559l-3.868,25.79
					C285.436,431.676,274.621,431.749,274.439,431.634z"/>
				<polygon style="opacity:0.64;fill:#3AB5A6;" points="259.141,413.985 277.588,425.35 288.24,413.495 				"/>
				<path style="fill:#FFFFFF;" d="M346.23,432.164h-69.927c-2,0-3.567-1.72-3.381-3.711l4.986-53.498
					c0.163-1.746,1.628-3.081,3.381-3.081h69.927c2,0,3.567,1.72,3.381,3.711l-4.986,53.498
					C349.448,430.829,347.983,432.164,346.23,432.164z"/>
				<path style="opacity:0.64;fill:none;stroke:#3AB5A6;stroke-miterlimit:10;" d="M346.23,432.164h-69.927
					c-2,0-3.567-1.72-3.381-3.711l4.986-53.498c0.163-1.746,1.628-3.081,3.381-3.081h69.927c2,0,3.567,1.72,3.381,3.711
					l-4.986,53.498C349.448,430.829,347.983,432.164,346.23,432.164z"/>
				
					<path style="opacity:0.64;fill:none;stroke:#3AB5A6;stroke-width:0.75;stroke-linecap:round;stroke-linejoin:round;stroke-miterlimit:10;" d="
					M277.065,416.355l3.582-38.437c0.156-1.669,1.556-2.946,3.233-2.946h36.584"/>
				<circle style="opacity:0.2;fill:#3AB5A6;" cx="313.76" cy="402.019" r="4.926"/>
				
					<line style="opacity:0.64;fill:none;stroke:#3AB5A6;stroke-linecap:round;stroke-linejoin:round;stroke-miterlimit:10;" x1="250.202" y1="413.495" x2="272.922" y2="427.349"/>
			</g>
		</g>
		<g>
			<path style="fill:#FCC790;" d="M247.384,386.723c2.534,0.688,9.049,4.549,9.049,4.549s6.044,2.892,8.543,3.782
				c2.5,0.89,6.196,4.182,6.953,5.994c0.757,1.812,0.556,8.279-0.57,8.362c-1.126,0.083-2.469-6.596-2.664-7.061
				c-0.194-0.465-3.422-2.305-3.422-2.305l5.514,14.729c0,0-1.791,0.292-3.343-1.245s-5.091-11.536-5.899-11.289
				c-0.808,0.246,4.163,14.11,4.163,14.11s-2.483-0.056-3.738-1.535c-1.255-1.479-4.232-12.532-5.118-12.253
				s0.293,10.079,0.293,10.079s-2.218-0.076-3.409-2.493s-1.178-8.707-1.178-8.707s-7.819-3.624-7.823-7.515
				c-0.001-0.999-9.545,2.114-20.583,3.816c-16.933,2.611-32.367-0.985-32.367-0.985s-1.975-1.637-2.175-5.707
				c4.702-2.057,12.396-4.865,17.262-9.151C212.34,382.843,244.85,386.035,247.384,386.723z"/>
			<path style="opacity:0.3;fill:#EF7D65;" d="M244.783,391.016c3.443,1.475,5.535,5.867,9.663,7.144
				c2.613,0.809,6.422,0.024,9.349-1.249c2.27,1.645,4.633,3.379,7.509,3.117c0.271,0.367,0.498,0.717,0.624,1.02
				c0.757,1.812,0.556,8.279-0.57,8.362c-1.126,0.083-2.469-6.596-2.664-7.061s-3.422-2.305-3.422-2.305l5.514,14.729
				c0,0-1.791,0.292-3.343-1.245s-5.091-11.536-5.899-11.289s4.163,14.11,4.163,14.11s-2.483-0.056-3.738-1.535
				c-1.255-1.479-4.232-12.532-5.118-12.253c-0.885,0.279,0.293,10.079,0.293,10.079s-2.218-0.076-3.409-2.493
				c-1.192-2.417-1.178-8.707-1.178-8.707s-7.819-3.624-7.823-7.515c-0.001-0.999-9.545,2.114-20.583,3.816
				c-16.933,2.611-32.367-0.985-32.367-0.985s-1.975-1.637-2.175-5.707C208,395.875,219.105,391.838,244.783,391.016z"/>
		</g>
	</g>
</g>
</svg>
